<?xml version="1.0" encoding="utf-8"?>
<!-- Generator: Adobe Illustrator 23.1.1, SVG Export Plug-In . SVG Version: 6.00 Build 0)  -->
<svg version="1.1" id="ITREND_ESP_CMYK_BLANCO_COLOR"
	 xmlns="http://www.w3.org/2000/svg" xmlns:xlink="http://www.w3.org/1999/xlink" x="0px" y="0px" viewBox="0 0 226.8 85.1"
	 style="enable-background:new 0 0 226.8 85.1;" xml:space="preserve">
<style type="text/css">
	.st0{display:none;fill:#1E2959;}
	.st1{fill:#FFFFFF;}
	.st2{fill:#EF3340;}
	.st3{fill:#FFC72C;}
	.st4{fill:#00C7B1;}
</style>
<rect x="0" y="0" class="st0" width="226.8" height="85"/>
<g>
	<g>
		<rect x="97.8" y="10.7" class="st1" width="6.7" height="32.9"/>
	</g>
	<g>
		<path class="st1" d="M119.4,13.4h-5.7v7.1c0,0-1.1,0-3.6,0h-1.2v5.5h4.3v10.7c0,4.5,2.9,7.1,7.5,7.1c1.9,0,3-0.3,3.6-0.6v-5.2
			c-0.3,0.1-1.2,0.2-2,0.2c-1.8,0-2.8-0.7-2.8-2.7v-9.7h4.7v-5.5h-4.7V13.4z"/>
	</g>
	<g>
		<path class="st2" d="M135.1,23.9v-3.4h-6.2v23.1h6.4V33c0-5,2.8-6.5,6.1-6.5c0.6,0,1.2,0,1.9,0.2v-6.3c-0.5,0-1-0.1-1.5-0.1
			C139.8,20.3,136.5,20.9,135.1,23.9z"/>
	</g>
	<g>
		<path class="st2" d="M157.7,39c-3.2,0-5.8-2.2-5.9-5.3h16.8c0-0.1,0.1-1,0.1-1.9c0-7.4-4.4-12-11.6-12c-6,0-11.6,4.8-11.6,12.2
			c0,7.8,5.7,12.3,12.2,12.3c5.6,0,9.2-3.1,10.6-6.9l-5.3-1.6C162.1,37.7,160.5,39,157.7,39z M157.2,24.9c3.6,0,5.2,2.3,5.3,4.6
			h-10.5C152.1,27.3,153.9,24.9,157.2,24.9z"/>
	</g>
	<g>
		<path class="st1" d="M186.5,19.9c-2.5,0-5.4,1.1-6.8,3.5v-2.9h-6.2v23.1h6.4V30.3c0-2.7,1.6-4.8,4.4-4.8c3.1,0,4.4,2,4.4,4.6v13.5
			h6.4V29.1C195,24,192.3,19.9,186.5,19.9z"/>
	</g>
	<g>
		<path class="st1" d="M223.2,39.4V10h-6.3v12.8c-0.7-1.2-2.6-2.9-6.7-2.9C203.6,20,199,25.3,199,32c0,7,4.8,12.2,11.5,12.2
			c3.2,0,5.6-1.4,6.6-3.2c0,1.1,0.1,2.2,0.2,2.7h6.1C223.3,42.7,223.2,41,223.2,39.4z M211.2,38.6c-3.3,0-5.8-2.4-5.8-6.6
			c0-4.1,2.6-6.5,5.8-6.5c3.3,0,5.8,2.3,5.8,6.4C217,36.1,214.5,38.6,211.2,38.6z"/>
	</g>
</g>
<g>
	<g>
		<path class="st1" d="M42.1,5.3c-5,0-9.9,1-14.3,2.8L34,14c2.6-0.7,5.3-1.2,8.2-1.2C58.6,12.8,72,26.2,72,42.7S58.6,72.6,42.1,72.6
			c-16.5,0-29.9-13.4-29.9-29.9c0-2.6,0.4-5,1-7.4l-6-5.7c-1.5,4.1-2.4,8.5-2.4,13.2c0,20.6,16.8,37.4,37.4,37.4
			s37.4-16.8,37.4-37.4S62.7,5.3,42.1,5.3z"/>
	</g>
	<g>
		<rect x="2.2" y="11.8" transform="matrix(0.69 -0.7238 0.7238 0.69 -6.3806 13.5799)" class="st3" width="21" height="4.9"/>
	</g>
	<g>
		<rect x="8.9" y="18.2" transform="matrix(0.69 -0.7238 0.7238 0.69 -8.9308 20.4199)" class="st4" width="21" height="4.9"/>
	</g>
	<g>
		<rect x="15.6" y="24.6" transform="matrix(0.69 -0.7238 0.7238 0.69 -11.4811 27.2599)" class="st2" width="21" height="4.9"/>
	</g>
</g>
<g>
	<path class="st1" d="M97.9,53.2h1.5v7h-1.5V53.2z"/>
	<path class="st1" d="M100.9,54.9h1.5v0.8c0.3-0.4,0.8-0.9,1.6-0.9c1.1,0,1.8,0.8,1.8,2v3.5h-1.5v-3c0-0.7-0.3-1.1-0.9-1.1
		c-0.6,0-0.9,0.4-0.9,1.1v3h-1.5V54.9z"/>
	<path class="st1" d="M106.5,59.5l0.6-1c0.6,0.4,1.2,0.6,1.7,0.6c0.4,0,0.6-0.2,0.6-0.4v0c0-0.3-0.5-0.4-1.1-0.6
		c-0.8-0.2-1.6-0.6-1.6-1.6v0c0-1.1,0.9-1.7,2-1.7c0.7,0,1.4,0.2,2,0.6l-0.6,1c-0.5-0.3-1.1-0.5-1.4-0.5c-0.4,0-0.6,0.2-0.6,0.4v0
		c0,0.3,0.5,0.4,1.1,0.6c0.8,0.2,1.6,0.6,1.6,1.6v0c0,1.2-0.9,1.7-2,1.7C108.1,60.3,107.2,60.1,106.5,59.5z"/>
	<path class="st1" d="M112,58.7v-2.5h-0.6v-1.3h0.6v-1.4h1.5v1.4h1.3v1.3h-1.3v2.3c0,0.3,0.2,0.5,0.5,0.5c0.3,0,0.5-0.1,0.7-0.2V60
		c-0.3,0.2-0.7,0.3-1.2,0.3C112.6,60.3,112,60,112,58.7z"/>
	<path class="st1" d="M115.8,52.9h1.6v1.3h-1.6V52.9z M115.8,54.9h1.5v5.4h-1.5V54.9z"/>
	<path class="st1" d="M118.8,58.7v-2.5h-0.6v-1.3h0.6v-1.4h1.5v1.4h1.3v1.3h-1.3v2.3c0,0.3,0.2,0.5,0.5,0.5c0.3,0,0.5-0.1,0.7-0.2
		V60c-0.3,0.2-0.7,0.3-1.2,0.3C119.5,60.3,118.8,60,118.8,58.7z"/>
	<path class="st1" d="M122.5,58.3v-3.5h1.5v3c0,0.7,0.3,1.1,0.9,1.1c0.6,0,0.9-0.4,0.9-1.1v-3h1.5v5.4h-1.5v-0.8
		c-0.3,0.4-0.8,0.9-1.6,0.9C123.2,60.3,122.5,59.6,122.5,58.3z"/>
	<path class="st1" d="M128.9,58.7v-2.5h-0.6v-1.3h0.6v-1.4h1.5v1.4h1.3v1.3h-1.3v2.3c0,0.3,0.2,0.5,0.5,0.5c0.3,0,0.5-0.1,0.7-0.2
		V60c-0.3,0.2-0.7,0.3-1.2,0.3C129.6,60.3,128.9,60,128.9,58.7z"/>
	<path class="st1" d="M132.3,57.6L132.3,57.6c0-1.6,1.2-2.8,2.9-2.8c1.7,0,2.9,1.2,2.9,2.8v0c0,1.5-1.2,2.8-2.9,2.8
		C133.5,60.4,132.3,59.1,132.3,57.6z M136.6,57.6L136.6,57.6c0-0.8-0.6-1.5-1.4-1.5c-0.9,0-1.4,0.7-1.4,1.5v0c0,0.8,0.6,1.5,1.4,1.5
		C136.1,59,136.6,58.4,136.6,57.6z"/>
	<path class="st1" d="M141.6,54.9h1.5v0.8c0.4-0.5,0.9-0.9,1.7-0.9c1.2,0,2.4,1,2.4,2.8v0c0,1.8-1.2,2.8-2.4,2.8
		c-0.8,0-1.3-0.4-1.7-0.8v2.3h-1.5V54.9z M145.7,57.6L145.7,57.6c0-0.9-0.6-1.5-1.3-1.5c-0.7,0-1.3,0.6-1.3,1.5v0
		c0,0.9,0.6,1.5,1.3,1.5C145.1,59,145.7,58.5,145.7,57.6z"/>
	<path class="st1" d="M147.8,58.7L147.8,58.7c0-1.2,0.9-1.7,2.2-1.7c0.5,0,0.9,0.1,1.3,0.2v-0.1c0-0.6-0.4-1-1.1-1
		c-0.6,0-1,0.1-1.5,0.3l-0.4-1.2c0.6-0.3,1.2-0.4,2.1-0.4c0.8,0,1.4,0.2,1.8,0.6c0.4,0.4,0.6,1,0.6,1.7v3.1h-1.5v-0.6
		c-0.4,0.4-0.9,0.7-1.6,0.7C148.6,60.3,147.8,59.8,147.8,58.7z M151.3,58.3v-0.3c-0.3-0.1-0.6-0.2-1-0.2c-0.7,0-1,0.3-1,0.7v0
		c0,0.4,0.3,0.6,0.8,0.6C150.8,59.3,151.3,58.9,151.3,58.3z"/>
	<path class="st1" d="M153.9,54.9h1.5V56c0.3-0.7,0.8-1.2,1.7-1.2v1.6h-0.1c-1,0-1.6,0.6-1.6,1.9v2h-1.5V54.9z"/>
	<path class="st1" d="M157.4,58.7L157.4,58.7c0-1.2,0.9-1.7,2.2-1.7c0.5,0,0.9,0.1,1.3,0.2v-0.1c0-0.6-0.4-1-1.1-1
		c-0.6,0-1,0.1-1.5,0.3l-0.4-1.2c0.6-0.3,1.2-0.4,2.1-0.4c0.8,0,1.4,0.2,1.8,0.6c0.4,0.4,0.6,1,0.6,1.7v3.1h-1.5v-0.6
		c-0.4,0.4-0.9,0.7-1.6,0.7C158.3,60.3,157.4,59.8,157.4,58.7z M160.9,58.3v-0.3c-0.3-0.1-0.6-0.2-1-0.2c-0.6,0-1,0.3-1,0.7v0
		c0,0.4,0.3,0.6,0.8,0.6C160.4,59.3,160.9,58.9,160.9,58.3z"/>
	<path class="st1" d="M166.1,52.9h1.5v7.3h-1.5V52.9z"/>
	<path class="st1" d="M168.6,58.7L168.6,58.7c0-1.2,0.9-1.7,2.2-1.7c0.5,0,0.9,0.1,1.3,0.2v-0.1c0-0.6-0.4-1-1.1-1
		c-0.6,0-1,0.1-1.5,0.3l-0.4-1.2c0.6-0.3,1.2-0.4,2.1-0.4c0.8,0,1.4,0.2,1.8,0.6c0.4,0.4,0.6,1,0.6,1.7v3.1H172v-0.6
		c-0.4,0.4-0.9,0.7-1.6,0.7C169.4,60.3,168.6,59.8,168.6,58.7z M172.1,58.3v-0.3c-0.3-0.1-0.6-0.2-1-0.2c-0.7,0-1,0.3-1,0.7v0
		c0,0.4,0.3,0.6,0.8,0.6C171.6,59.3,172.1,58.9,172.1,58.3z"/>
	<path class="st2" d="M97.8,66.3h3.2c0.9,0,1.6,0.2,2,0.7c0.4,0.4,0.6,0.9,0.6,1.6v0c0,1.1-0.6,1.8-1.5,2.2l1.7,2.5h-1.8l-1.5-2.2
		h-1.2v2.2h-1.5V66.3z M100.9,69.7c0.8,0,1.2-0.4,1.2-1v0c0-0.7-0.5-1-1.2-1h-1.5v2H100.9z"/>
	<path class="st2" d="M104.4,70.7L104.4,70.7c0-1.5,1.1-2.8,2.6-2.8c1.8,0,2.6,1.4,2.6,2.9c0,0.1,0,0.3,0,0.4h-3.7
		c0.2,0.7,0.6,1,1.3,1c0.5,0,0.9-0.2,1.3-0.5l0.9,0.8c-0.5,0.6-1.2,1-2.2,1C105.6,73.4,104.4,72.3,104.4,70.7z M108.2,70.2
		c-0.1-0.7-0.5-1.1-1.1-1.1c-0.6,0-1,0.4-1.2,1.1H108.2z"/>
	<path class="st2" d="M110.1,72.6l0.6-1c0.6,0.4,1.2,0.6,1.7,0.6c0.4,0,0.6-0.2,0.6-0.4v0c0-0.3-0.5-0.4-1.1-0.6
		c-0.8-0.2-1.6-0.6-1.6-1.6v0c0-1.1,0.9-1.7,2-1.7c0.7,0,1.4,0.2,2,0.6l-0.6,1c-0.5-0.3-1.1-0.5-1.4-0.5c-0.4,0-0.6,0.2-0.6,0.4v0
		c0,0.3,0.5,0.4,1.1,0.6c0.8,0.2,1.6,0.6,1.6,1.6v0c0,1.2-0.9,1.7-2,1.7C111.7,73.4,110.8,73.2,110.1,72.6z"/>
	<path class="st2" d="M115.4,66h1.6v1.3h-1.6V66z M115.5,67.9h1.5v5.4h-1.5V67.9z"/>
	<path class="st2" d="M118.3,66h1.5v7.3h-1.5V66z"/>
	<path class="st2" d="M121,66h1.6v1.3H121V66z M121.1,67.9h1.5v5.4h-1.5V67.9z"/>
	<path class="st2" d="M123.5,70.7L123.5,70.7c0-1.5,1.1-2.8,2.6-2.8c1.8,0,2.6,1.4,2.6,2.9c0,0.1,0,0.3,0,0.4H125
		c0.2,0.7,0.6,1,1.3,1c0.5,0,0.9-0.2,1.3-0.5l0.9,0.8c-0.5,0.6-1.2,1-2.2,1C124.7,73.4,123.5,72.3,123.5,70.7z M127.3,70.2
		c-0.1-0.7-0.5-1.1-1.1-1.1c-0.6,0-1,0.4-1.2,1.1H127.3z"/>
	<path class="st2" d="M129.7,67.9h1.5v0.8c0.3-0.4,0.8-0.9,1.6-0.9c1.1,0,1.8,0.8,1.8,2v3.5h-1.5v-3c0-0.7-0.3-1.1-0.9-1.1
		c-0.6,0-0.9,0.4-0.9,1.1v3h-1.5V67.9z"/>
	<path class="st2" d="M135.5,70.7L135.5,70.7c0-1.5,1.2-2.8,2.8-2.8c1,0,1.6,0.3,2.1,0.9l-0.9,1c-0.3-0.4-0.7-0.6-1.2-0.6
		c-0.8,0-1.3,0.7-1.3,1.5v0c0,0.8,0.5,1.5,1.4,1.5c0.5,0,0.9-0.2,1.2-0.6l0.9,0.9c-0.5,0.6-1.1,1-2.2,1
		C136.7,73.4,135.5,72.2,135.5,70.7z"/>
	<path class="st2" d="M141.2,66h1.6v1.3h-1.6V66z M141.3,67.9h1.5v5.4h-1.5V67.9z"/>
	<path class="st2" d="M143.7,71.8L143.7,71.8c0-1.2,0.9-1.7,2.2-1.7c0.5,0,0.9,0.1,1.3,0.2v-0.1c0-0.6-0.4-1-1.1-1
		c-0.6,0-1,0.1-1.5,0.3l-0.4-1.2c0.6-0.3,1.2-0.4,2.1-0.4c0.8,0,1.4,0.2,1.8,0.6c0.4,0.4,0.6,1,0.6,1.7v3.1h-1.5v-0.6
		c-0.4,0.4-0.9,0.7-1.6,0.7C144.5,73.4,143.7,72.8,143.7,71.8z M147.2,71.4v-0.3c-0.3-0.1-0.6-0.2-1-0.2c-0.7,0-1,0.3-1,0.7v0
		c0,0.4,0.3,0.6,0.8,0.6C146.7,72.4,147.2,72,147.2,71.4z"/>
	<path class="st1" d="M152,71.8L152,71.8c0-1.2,0.9-1.7,2.2-1.7c0.5,0,0.9,0.1,1.3,0.2v-0.1c0-0.6-0.4-1-1.1-1c-0.6,0-1,0.1-1.5,0.3
		l-0.4-1.2c0.6-0.3,1.2-0.4,2.1-0.4c0.8,0,1.4,0.2,1.8,0.6c0.4,0.4,0.6,1,0.6,1.7v3.1h-1.5v-0.6c-0.4,0.4-0.9,0.7-1.6,0.7
		C152.8,73.4,152,72.8,152,71.8z M155.5,71.4v-0.3c-0.3-0.1-0.6-0.2-1-0.2c-0.7,0-1,0.3-1,0.7v0c0,0.4,0.3,0.6,0.8,0.6
		C155,72.4,155.5,72,155.5,71.4z"/>
	<path class="st1" d="M158.1,67.9h1.5v0.8c0.3-0.4,0.8-0.9,1.6-0.9c1.1,0,1.8,0.8,1.8,2v3.5h-1.5v-3c0-0.7-0.3-1.1-0.9-1.1
		c-0.6,0-0.9,0.4-0.9,1.1v3h-1.5V67.9z"/>
	<path class="st1" d="M164.4,71.8v-2.5h-0.6v-1.3h0.6v-1.4h1.5v1.4h1.3v1.3h-1.3v2.3c0,0.3,0.2,0.5,0.5,0.5c0.3,0,0.5-0.1,0.7-0.2
		v1.2c-0.3,0.2-0.7,0.3-1.2,0.3C165,73.4,164.4,73,164.4,71.8z"/>
	<path class="st1" d="M167.8,70.7L167.8,70.7c0-1.5,1.1-2.8,2.6-2.8c1.8,0,2.6,1.4,2.6,2.9c0,0.1,0,0.3,0,0.4h-3.7
		c0.2,0.7,0.6,1,1.3,1c0.5,0,0.9-0.2,1.3-0.5l0.9,0.8c-0.5,0.6-1.2,1-2.2,1C169,73.4,167.8,72.3,167.8,70.7z M171.6,70.2
		c-0.1-0.7-0.5-1.1-1.1-1.1c-0.6,0-1,0.4-1.2,1.1H171.6z"/>
	<path class="st1" d="M176.8,66.3h2.7c2.2,0,3.7,1.5,3.7,3.5v0c0,2-1.5,3.5-3.7,3.5h-2.7V66.3z M179.5,71.9c1.3,0,2.1-0.8,2.1-2.1v0
		c0-1.2-0.8-2.1-2.1-2.1h-1.2v4.2H179.5z"/>
	<path class="st1" d="M184,70.7L184,70.7c0-1.5,1.1-2.8,2.6-2.8c1.8,0,2.6,1.4,2.6,2.9c0,0.1,0,0.3,0,0.4h-3.7c0.2,0.7,0.6,1,1.3,1
		c0.5,0,0.9-0.2,1.3-0.5l0.9,0.8c-0.5,0.6-1.2,1-2.2,1C185.2,73.4,184,72.3,184,70.7z M187.8,70.2c-0.1-0.7-0.5-1.1-1.1-1.1
		c-0.6,0-1,0.4-1.2,1.1H187.8z"/>
	<path class="st1" d="M189.7,72.6l0.6-1c0.6,0.4,1.2,0.6,1.7,0.6c0.4,0,0.6-0.2,0.6-0.4v0c0-0.3-0.5-0.4-1.1-0.6
		c-0.8-0.2-1.6-0.6-1.6-1.6v0c0-1.1,0.9-1.7,2-1.7c0.7,0,1.4,0.2,2,0.6l-0.6,1c-0.5-0.3-1.1-0.5-1.4-0.5c-0.4,0-0.6,0.2-0.6,0.4v0
		c0,0.3,0.5,0.4,1.1,0.6c0.8,0.2,1.6,0.6,1.6,1.6v0c0,1.2-0.9,1.7-2,1.7C191.3,73.4,190.4,73.2,189.7,72.6z"/>
	<path class="st1" d="M194.7,71.8L194.7,71.8c0-1.2,0.9-1.7,2.2-1.7c0.5,0,0.9,0.1,1.3,0.2v-0.1c0-0.6-0.4-1-1.1-1
		c-0.6,0-1,0.1-1.5,0.3l-0.4-1.2c0.6-0.3,1.2-0.4,2.1-0.4c0.8,0,1.4,0.2,1.8,0.6c0.4,0.4,0.6,1,0.6,1.7v3.1h-1.5v-0.6
		c-0.4,0.4-0.9,0.7-1.6,0.7C195.5,73.4,194.7,72.8,194.7,71.8z M198.2,71.4v-0.3c-0.3-0.1-0.6-0.2-1-0.2c-0.6,0-1,0.3-1,0.7v0
		c0,0.4,0.3,0.6,0.8,0.6C197.7,72.4,198.2,72,198.2,71.4z"/>
	<path class="st1" d="M200.3,72.6l0.6-1c0.6,0.4,1.2,0.6,1.7,0.6c0.4,0,0.6-0.2,0.6-0.4v0c0-0.3-0.5-0.4-1.1-0.6
		c-0.8-0.2-1.6-0.6-1.6-1.6v0c0-1.1,0.9-1.7,2-1.7c0.7,0,1.4,0.2,2,0.6l-0.6,1c-0.5-0.3-1.1-0.5-1.4-0.5c-0.4,0-0.6,0.2-0.6,0.4v0
		c0,0.3,0.5,0.4,1.1,0.6c0.8,0.2,1.6,0.6,1.6,1.6v0c0,1.2-0.9,1.7-2,1.7C201.9,73.4,201,73.2,200.3,72.6z"/>
	<path class="st1" d="M205.8,71.8v-2.5h-0.6v-1.3h0.6v-1.4h1.5v1.4h1.3v1.3h-1.3v2.3c0,0.3,0.2,0.5,0.5,0.5c0.3,0,0.5-0.1,0.7-0.2
		v1.2c-0.3,0.2-0.7,0.3-1.2,0.3C206.4,73.4,205.8,73,205.8,71.8z"/>
	<path class="st1" d="M209.6,67.9h1.5V69c0.3-0.7,0.8-1.2,1.7-1.2v1.6h-0.1c-1,0-1.6,0.6-1.6,1.9v2h-1.5V67.9z"/>
	<path class="st1" d="M213.3,70.7L213.3,70.7c0-1.5,1.1-2.8,2.6-2.8c1.8,0,2.6,1.4,2.6,2.9c0,0.1,0,0.3,0,0.4h-3.7
		c0.2,0.7,0.6,1,1.3,1c0.5,0,0.9-0.2,1.3-0.5l0.9,0.8c-0.5,0.6-1.2,1-2.2,1C214.5,73.4,213.3,72.3,213.3,70.7z M217.1,70.2
		c-0.1-0.7-0.5-1.1-1.1-1.1c-0.6,0-1,0.4-1.2,1.1H217.1z"/>
	<path class="st1" d="M219,72.6l0.6-1c0.6,0.4,1.2,0.6,1.7,0.6c0.4,0,0.6-0.2,0.6-0.4v0c0-0.3-0.5-0.4-1.1-0.6
		c-0.8-0.2-1.6-0.6-1.6-1.6v0c0-1.1,0.9-1.7,2-1.7c0.7,0,1.4,0.2,2,0.6l-0.6,1c-0.5-0.3-1.1-0.5-1.4-0.5c-0.4,0-0.6,0.2-0.6,0.4v0
		c0,0.3,0.5,0.4,1.1,0.6c0.8,0.2,1.6,0.6,1.6,1.6v0c0,1.2-0.9,1.7-2,1.7C220.6,73.4,219.7,73.2,219,72.6z"/>
</g>
</svg>
